<svg width="50" height="50" viewBox="0 0 50 50" fill="none" xmlns="http://www.w3.org/2000/svg">
<rect width="50" height="50" rx="10" fill="url(#paint0_linear_6_1324)"/>
<circle cx="16" cy="14" r="5" fill="white"/>
<circle cx="16" cy="35" r="5" fill="white"/>
<path d="M40 35C40 37.7614 37.7614 40 35 40C32.2386 40 30 37.7614 30 35C30 32.2386 32.2386 30 35 30C37.7614 30 40 32.2386 40 35Z" fill="white"/>
<path d="M40 14C40 16.7614 37.7614 19 35 19C32.2386 19 30 16.7614 30 14C30 11.2386 32.2386 9 35 9C37.7614 9 40 11.2386 40 14Z" fill="white"/>
<line x1="16" y1="18" x2="16" y2="34" stroke="white" stroke-width="2"/>
<line x1="35" y1="13" x2="35" y2="31" stroke="white" stroke-width="2"/>
<path d="M16 17C20.0709 26.7163 33.7441 24.6152 34 32" stroke="white" stroke-width="2"/>
<defs>
<linearGradient id="paint0_linear_6_1324" x1="0" y1="0" x2="50" y2="50" gradientUnits="userSpaceOnUse">
<stop stop-color="#6A5FF0"/>
<stop offset="1" stop-color="#8D3BEB"/>
</linearGradient>
</defs>
</svg>
